<mxfile host="app.diagrams.net" agent="Mozilla/5.0 (Macintosh; Intel Mac OS X 10_15_7) AppleWebKit/605.1.15 (KHTML, like Gecko) Version/17.6 Safari/605.1.15" version="24.7.9">
  <diagram name="페이지-1" id="5VQdo3rjBxlBMdRI_lET">
    <mxGraphModel dx="1302" dy="779" grid="0" gridSize="10" guides="1" tooltips="1" connect="1" arrows="1" fold="1" page="1" pageScale="1" pageWidth="1169" pageHeight="827" math="0" shadow="0">
      <root>
        <mxCell id="0" />
        <mxCell id="1" parent="0" />
        <mxCell id="o-ZpfQm57ATGy068CR_h-64" style="rounded=0;orthogonalLoop=1;jettySize=auto;html=1;endArrow=none;endFill=0;entryX=0.5;entryY=1;entryDx=0;entryDy=0;" edge="1" parent="1" source="o-ZpfQm57ATGy068CR_h-52" target="o-ZpfQm57ATGy068CR_h-35">
          <mxGeometry relative="1" as="geometry" />
        </mxCell>
        <mxCell id="o-ZpfQm57ATGy068CR_h-63" style="rounded=0;orthogonalLoop=1;jettySize=auto;html=1;endArrow=none;endFill=0;" edge="1" parent="1" source="o-ZpfQm57ATGy068CR_h-51" target="o-ZpfQm57ATGy068CR_h-35">
          <mxGeometry relative="1" as="geometry" />
        </mxCell>
        <mxCell id="o-ZpfQm57ATGy068CR_h-62" style="rounded=0;orthogonalLoop=1;jettySize=auto;html=1;entryX=0.494;entryY=0.935;entryDx=0;entryDy=0;entryPerimeter=0;endArrow=none;endFill=0;" edge="1" parent="1" source="o-ZpfQm57ATGy068CR_h-50" target="o-ZpfQm57ATGy068CR_h-35">
          <mxGeometry relative="1" as="geometry" />
        </mxCell>
        <mxCell id="o-ZpfQm57ATGy068CR_h-61" style="rounded=0;orthogonalLoop=1;jettySize=auto;html=1;entryX=0.5;entryY=1;entryDx=0;entryDy=0;endArrow=none;endFill=0;" edge="1" parent="1" source="o-ZpfQm57ATGy068CR_h-41" target="o-ZpfQm57ATGy068CR_h-35">
          <mxGeometry relative="1" as="geometry" />
        </mxCell>
        <mxCell id="o-ZpfQm57ATGy068CR_h-60" style="rounded=0;orthogonalLoop=1;jettySize=auto;html=1;endArrow=none;endFill=0;entryX=0.5;entryY=1;entryDx=0;entryDy=0;" edge="1" parent="1" source="o-ZpfQm57ATGy068CR_h-39" target="o-ZpfQm57ATGy068CR_h-35">
          <mxGeometry relative="1" as="geometry" />
        </mxCell>
        <mxCell id="o-ZpfQm57ATGy068CR_h-14" style="rounded=0;orthogonalLoop=1;jettySize=auto;html=1;entryX=0.5;entryY=0;entryDx=0;entryDy=0;endArrow=none;endFill=0;" edge="1" parent="1" source="o-ZpfQm57ATGy068CR_h-1" target="o-ZpfQm57ATGy068CR_h-12">
          <mxGeometry relative="1" as="geometry" />
        </mxCell>
        <mxCell id="o-ZpfQm57ATGy068CR_h-16" style="rounded=0;orthogonalLoop=1;jettySize=auto;html=1;entryX=0.5;entryY=0;entryDx=0;entryDy=0;endArrow=none;endFill=0;" edge="1" parent="1" source="o-ZpfQm57ATGy068CR_h-1">
          <mxGeometry relative="1" as="geometry">
            <mxPoint x="236" y="258" as="targetPoint" />
          </mxGeometry>
        </mxCell>
        <mxCell id="o-ZpfQm57ATGy068CR_h-1" value="Member" style="whiteSpace=wrap;html=1;align=center;" vertex="1" parent="1">
          <mxGeometry x="319" y="160" width="100" height="40" as="geometry" />
        </mxCell>
        <mxCell id="o-ZpfQm57ATGy068CR_h-7" style="rounded=0;orthogonalLoop=1;jettySize=auto;html=1;endArrow=none;endFill=0;" edge="1" parent="1" target="o-ZpfQm57ATGy068CR_h-6">
          <mxGeometry relative="1" as="geometry">
            <mxPoint x="281.5" y="453" as="sourcePoint" />
          </mxGeometry>
        </mxCell>
        <mxCell id="o-ZpfQm57ATGy068CR_h-5" value="댓글" style="shape=ext;margin=3;double=1;whiteSpace=wrap;html=1;align=center;" vertex="1" parent="1">
          <mxGeometry x="456.5" y="433" width="100" height="40" as="geometry" />
        </mxCell>
        <mxCell id="o-ZpfQm57ATGy068CR_h-8" style="rounded=0;orthogonalLoop=1;jettySize=auto;html=1;shape=link;" edge="1" parent="1" source="o-ZpfQm57ATGy068CR_h-6" target="o-ZpfQm57ATGy068CR_h-5">
          <mxGeometry relative="1" as="geometry" />
        </mxCell>
        <mxCell id="o-ZpfQm57ATGy068CR_h-6" value="구성되다" style="shape=rhombus;double=1;perimeter=rhombusPerimeter;whiteSpace=wrap;html=1;align=center;" vertex="1" parent="1">
          <mxGeometry x="307.5" y="423" width="120" height="60" as="geometry" />
        </mxCell>
        <mxCell id="o-ZpfQm57ATGy068CR_h-15" style="rounded=0;orthogonalLoop=1;jettySize=auto;html=1;endArrow=none;endFill=0;shape=link;" edge="1" parent="1">
          <mxGeometry relative="1" as="geometry">
            <mxPoint x="235.19282511210758" y="317.5964125560538" as="sourcePoint" />
            <mxPoint x="232.0454545454545" y="433" as="targetPoint" />
          </mxGeometry>
        </mxCell>
        <mxCell id="o-ZpfQm57ATGy068CR_h-25" style="rounded=0;orthogonalLoop=1;jettySize=auto;html=1;entryX=0.5;entryY=0;entryDx=0;entryDy=0;shape=link;" edge="1" parent="1" source="o-ZpfQm57ATGy068CR_h-12" target="o-ZpfQm57ATGy068CR_h-5">
          <mxGeometry relative="1" as="geometry" />
        </mxCell>
        <mxCell id="o-ZpfQm57ATGy068CR_h-12" value="작성하다" style="shape=rhombus;perimeter=rhombusPerimeter;whiteSpace=wrap;html=1;align=center;" vertex="1" parent="1">
          <mxGeometry x="446" y="258" width="120" height="60" as="geometry" />
        </mxCell>
        <mxCell id="o-ZpfQm57ATGy068CR_h-26" value="N" style="text;html=1;align=center;verticalAlign=middle;resizable=0;points=[];autosize=1;strokeColor=none;fillColor=none;" vertex="1" parent="1">
          <mxGeometry x="456" y="206" width="27" height="26" as="geometry" />
        </mxCell>
        <mxCell id="o-ZpfQm57ATGy068CR_h-27" value="M" style="text;html=1;align=center;verticalAlign=middle;resizable=0;points=[];autosize=1;strokeColor=none;fillColor=none;" vertex="1" parent="1">
          <mxGeometry x="476.5" y="363" width="28" height="26" as="geometry" />
        </mxCell>
        <mxCell id="o-ZpfQm57ATGy068CR_h-28" value="N" style="text;html=1;align=center;verticalAlign=middle;resizable=0;points=[];autosize=1;strokeColor=none;fillColor=none;" vertex="1" parent="1">
          <mxGeometry x="429.5" y="457" width="27" height="26" as="geometry" />
        </mxCell>
        <mxCell id="o-ZpfQm57ATGy068CR_h-29" value="1" style="text;html=1;align=center;verticalAlign=middle;resizable=0;points=[];autosize=1;strokeColor=none;fillColor=none;" vertex="1" parent="1">
          <mxGeometry x="288.5" y="451" width="25" height="26" as="geometry" />
        </mxCell>
        <mxCell id="o-ZpfQm57ATGy068CR_h-30" value="1" style="text;html=1;align=center;verticalAlign=middle;resizable=0;points=[];autosize=1;strokeColor=none;fillColor=none;" vertex="1" parent="1">
          <mxGeometry x="249" y="210" width="25" height="26" as="geometry" />
        </mxCell>
        <mxCell id="o-ZpfQm57ATGy068CR_h-31" value="N" style="text;html=1;align=center;verticalAlign=middle;resizable=0;points=[];autosize=1;strokeColor=none;fillColor=none;" vertex="1" parent="1">
          <mxGeometry x="199.5" y="363" width="27" height="26" as="geometry" />
        </mxCell>
        <mxCell id="o-ZpfQm57ATGy068CR_h-57" style="rounded=0;orthogonalLoop=1;jettySize=auto;html=1;endArrow=none;endFill=0;entryX=0.502;entryY=0.935;entryDx=0;entryDy=0;entryPerimeter=0;" edge="1" parent="1" source="o-ZpfQm57ATGy068CR_h-32" target="o-ZpfQm57ATGy068CR_h-35">
          <mxGeometry relative="1" as="geometry" />
        </mxCell>
        <mxCell id="o-ZpfQm57ATGy068CR_h-32" value="카테고리" style="ellipse;whiteSpace=wrap;html=1;align=center;" vertex="1" parent="1">
          <mxGeometry x="180" y="513" width="77" height="39" as="geometry" />
        </mxCell>
        <mxCell id="o-ZpfQm57ATGy068CR_h-56" style="rounded=0;orthogonalLoop=1;jettySize=auto;html=1;endArrow=none;endFill=0;entryX=0.5;entryY=1;entryDx=0;entryDy=0;" edge="1" parent="1" source="o-ZpfQm57ATGy068CR_h-33" target="o-ZpfQm57ATGy068CR_h-35">
          <mxGeometry relative="1" as="geometry" />
        </mxCell>
        <mxCell id="o-ZpfQm57ATGy068CR_h-33" value="id" style="ellipse;whiteSpace=wrap;html=1;align=center;" vertex="1" parent="1">
          <mxGeometry x="92" y="513" width="77" height="39" as="geometry" />
        </mxCell>
        <mxCell id="o-ZpfQm57ATGy068CR_h-34" value="조회수" style="ellipse;whiteSpace=wrap;html=1;align=center;" vertex="1" parent="1">
          <mxGeometry x="92" y="567" width="77" height="39" as="geometry" />
        </mxCell>
        <mxCell id="o-ZpfQm57ATGy068CR_h-35" value="글" style="shape=ext;margin=3;double=1;whiteSpace=wrap;html=1;align=center;" vertex="1" parent="1">
          <mxGeometry x="182" y="431" width="100" height="40" as="geometry" />
        </mxCell>
        <mxCell id="o-ZpfQm57ATGy068CR_h-36" value="구성되다" style="shape=rhombus;double=1;perimeter=rhombusPerimeter;whiteSpace=wrap;html=1;align=center;" vertex="1" parent="1">
          <mxGeometry x="176" y="258" width="120" height="60" as="geometry" />
        </mxCell>
        <mxCell id="o-ZpfQm57ATGy068CR_h-38" style="rounded=0;orthogonalLoop=1;jettySize=auto;html=1;endArrow=none;endFill=0;" edge="1" parent="1" source="o-ZpfQm57ATGy068CR_h-37" target="o-ZpfQm57ATGy068CR_h-1">
          <mxGeometry relative="1" as="geometry" />
        </mxCell>
        <mxCell id="o-ZpfQm57ATGy068CR_h-37" value="&lt;u&gt;id&lt;/u&gt;" style="ellipse;whiteSpace=wrap;html=1;align=center;" vertex="1" parent="1">
          <mxGeometry x="291" y="81" width="77" height="39" as="geometry" />
        </mxCell>
        <mxCell id="o-ZpfQm57ATGy068CR_h-39" value="작성일/시간" style="ellipse;whiteSpace=wrap;html=1;align=center;" vertex="1" parent="1">
          <mxGeometry x="180" y="567" width="77" height="39" as="geometry" />
        </mxCell>
        <mxCell id="o-ZpfQm57ATGy068CR_h-58" style="rounded=0;orthogonalLoop=1;jettySize=auto;html=1;endArrow=none;endFill=0;entryX=0.5;entryY=1;entryDx=0;entryDy=0;" edge="1" parent="1" source="o-ZpfQm57ATGy068CR_h-40" target="o-ZpfQm57ATGy068CR_h-35">
          <mxGeometry relative="1" as="geometry">
            <mxPoint x="254" y="488" as="targetPoint" />
          </mxGeometry>
        </mxCell>
        <mxCell id="o-ZpfQm57ATGy068CR_h-40" value="제목" style="ellipse;whiteSpace=wrap;html=1;align=center;" vertex="1" parent="1">
          <mxGeometry x="268" y="513" width="77" height="39" as="geometry" />
        </mxCell>
        <mxCell id="o-ZpfQm57ATGy068CR_h-41" value="내용" style="ellipse;whiteSpace=wrap;html=1;align=center;" vertex="1" parent="1">
          <mxGeometry x="268" y="567" width="77" height="39" as="geometry" />
        </mxCell>
        <mxCell id="o-ZpfQm57ATGy068CR_h-42" value="카테고리가 전체인 글 목록을 볼 때는, 화면에 글 ID 대신 카테고리가 보여야 한다.&lt;div&gt;특정 카테고리가 설정된 이후에는 표의 가장 앞에 글 ID가 보여야 한다.&lt;/div&gt;" style="text;html=1;align=center;verticalAlign=middle;resizable=0;points=[];autosize=1;strokeColor=#d6b656;fillColor=#fff2cc;" vertex="1" parent="1">
          <mxGeometry x="39" y="695" width="398" height="40" as="geometry" />
        </mxCell>
        <mxCell id="o-ZpfQm57ATGy068CR_h-53" style="rounded=0;orthogonalLoop=1;jettySize=auto;html=1;endArrow=none;endFill=0;" edge="1" parent="1" source="o-ZpfQm57ATGy068CR_h-44" target="o-ZpfQm57ATGy068CR_h-5">
          <mxGeometry relative="1" as="geometry" />
        </mxCell>
        <mxCell id="o-ZpfQm57ATGy068CR_h-44" value="id" style="ellipse;whiteSpace=wrap;html=1;align=center;" vertex="1" parent="1">
          <mxGeometry x="424" y="517" width="59" height="40" as="geometry" />
        </mxCell>
        <mxCell id="o-ZpfQm57ATGy068CR_h-54" style="rounded=0;orthogonalLoop=1;jettySize=auto;html=1;endArrow=none;endFill=0;" edge="1" parent="1" source="o-ZpfQm57ATGy068CR_h-46" target="o-ZpfQm57ATGy068CR_h-5">
          <mxGeometry relative="1" as="geometry" />
        </mxCell>
        <mxCell id="o-ZpfQm57ATGy068CR_h-46" value="작성일/시간" style="ellipse;whiteSpace=wrap;html=1;align=center;" vertex="1" parent="1">
          <mxGeometry x="496" y="517" width="60.5" height="40" as="geometry" />
        </mxCell>
        <mxCell id="o-ZpfQm57ATGy068CR_h-55" style="rounded=0;orthogonalLoop=1;jettySize=auto;html=1;entryX=0.75;entryY=1;entryDx=0;entryDy=0;endArrow=none;endFill=0;" edge="1" parent="1" source="o-ZpfQm57ATGy068CR_h-47" target="o-ZpfQm57ATGy068CR_h-5">
          <mxGeometry relative="1" as="geometry" />
        </mxCell>
        <mxCell id="o-ZpfQm57ATGy068CR_h-47" value="내용" style="ellipse;whiteSpace=wrap;html=1;align=center;" vertex="1" parent="1">
          <mxGeometry x="566" y="517" width="60.5" height="40" as="geometry" />
        </mxCell>
        <mxCell id="o-ZpfQm57ATGy068CR_h-49" style="rounded=0;orthogonalLoop=1;jettySize=auto;html=1;endArrow=none;endFill=0;" edge="1" parent="1" source="o-ZpfQm57ATGy068CR_h-48" target="o-ZpfQm57ATGy068CR_h-1">
          <mxGeometry relative="1" as="geometry" />
        </mxCell>
        <mxCell id="o-ZpfQm57ATGy068CR_h-48" value="이름" style="ellipse;whiteSpace=wrap;html=1;align=center;" vertex="1" parent="1">
          <mxGeometry x="404.5" y="81" width="77" height="39" as="geometry" />
        </mxCell>
        <mxCell id="o-ZpfQm57ATGy068CR_h-50" value="좋아요" style="ellipse;whiteSpace=wrap;html=1;align=center;" vertex="1" parent="1">
          <mxGeometry x="92" y="622" width="77" height="39" as="geometry" />
        </mxCell>
        <mxCell id="o-ZpfQm57ATGy068CR_h-51" value="댓글 수" style="ellipse;whiteSpace=wrap;html=1;align=center;" vertex="1" parent="1">
          <mxGeometry x="182" y="622" width="77" height="39" as="geometry" />
        </mxCell>
        <mxCell id="o-ZpfQm57ATGy068CR_h-52" value="첨부 파일" style="ellipse;whiteSpace=wrap;html=1;align=center;" vertex="1" parent="1">
          <mxGeometry x="276" y="622" width="77" height="39" as="geometry" />
        </mxCell>
        <mxCell id="o-ZpfQm57ATGy068CR_h-59" style="rounded=0;orthogonalLoop=1;jettySize=auto;html=1;entryX=0.5;entryY=1;entryDx=0;entryDy=0;endArrow=none;endFill=0;" edge="1" parent="1" source="o-ZpfQm57ATGy068CR_h-34" target="o-ZpfQm57ATGy068CR_h-35">
          <mxGeometry relative="1" as="geometry" />
        </mxCell>
      </root>
    </mxGraphModel>
  </diagram>
</mxfile>
